<svg width="15" height="12" fill="none" xmlns="http://www.w3.org/2000/svg"><path d="M9.983 5.882l4.646-4.035a.505.505 0 00.04-.727.546.546 0 00-.751-.038L7.51 6.651 6.26 5.57c-.004-.004-.008-.008-.008-.012a.78.78 0 00-.087-.072L1.078 1.078a.542.542 0 00-.75.042.502.502 0 00.043.727l4.702 4.07L.39 10.16a.504.504 0 00-.023.727.541.541 0 00.75.027l4.754-4.305L7.16 7.724a.54.54 0 00.708-.004l1.325-1.15 4.725 4.348c.102.095.236.14.366.14a.537.537 0 00.385-.16.504.504 0 00-.02-.726l-4.666-4.29z" fill="#00B2FF"/></svg>